<?xml version="1.0" encoding="utf-8"?>
<!-- Generator: Adobe Illustrator 21.1.0, SVG Export Plug-In . SVG Version: 6.00 Build 0)  -->
<svg version="1.1" id="Ebene_1" xmlns="http://www.w3.org/2000/svg" xmlns:xlink="http://www.w3.org/1999/xlink" x="0px" y="0px"
	 viewBox="0 0 600 200" style="enable-background:new 0 0 600 200;" xml:space="preserve">
<style type="text/css">
	.st0{fill:#00FFB0;}
	.st1{fill:#FF0000;}
	.st2{fill:#FFFF00;}
</style>
<polygon id="poly1" class="st0" points="338,166 36,166 36,114 48,107 92,95 111,91 171,88 189,88 264,93 281,96 326,107 338,119 
	"/>
<polygon id="poly2" class="st1" points="36,114 14,114 0,116 0,166 36,166 "/>
<polygon id="poly3" class="st2" points="0,104 0,116 14,114 22,106 "/>
<polygon id="poly4" class="st1" points="0,90 55,86 82,91 92,95 48,107 22,106 0,104 "/>
<polygon id="poly5" class="st2" points="55,86 78,83 98,89 82,91 "/>
<polygon id="poly6" class="st1" points="111,91 98,89 78,83 171,74 172,80 171,88 "/>
<polygon id="poly7" class="st2" points="172,80 171,74 188,73 188,80 "/>
<polygon id="poly8" class="st1" points="189,88 188,80 188,73 275,66 276,88 264,93 "/>
<polygon id="poly9" class="st2" points="276,88 275,66 343,60 345,80 290,92 "/>
<polygon id="poly10" class="st1" points="281,96 290,92 345,80 384,100 355,105 326,107 "/>
<polygon id="poly11" class="st2" points="358,115 355,105 384,100 393,112 "/>
<polygon id="poly12" class="st1" points="338,166 338,119 358,115 393,112 393,166 "/>
<polygon id="poly13" class="st0" points="384,100 345,80 343,60 600,37 600,83 "/>
<polygon id="poly14" class="st1" points="384,100 600,83 600,115 393,112 "/>
<polygon id="poly15" class="st0" points="393,166 393,112 600,115 600,166 "/>
</svg>
